<svg width="72" height="56" viewBox="0 0 72 56" fill="none" xmlns="http://www.w3.org/2000/svg">
<path d="M67.7673 51.1996L67.7473 51.1877C68.6233 49.9857 68.6413 48.5126 68.0453 47.4496C67.6523 46.7486 66.6473 45.6577 65.3203 44.2597C62.7923 41.5967 59.0863 37.8077 56.1523 33.4107C54.9203 31.5657 53.8253 29.6147 53.0103 27.5947C50.8973 22.3527 49.9173 17.9667 48.6113 14.6557C47.5853 12.0537 46.3573 10.1147 44.2193 8.95066C39.3613 6.30566 38.2003 14.8137 31.6833 12.9677C25.9333 11.3387 23.6173 7.52765 21.6613 4.20265C21.2303 3.46965 20.2853 3.23865 19.5603 3.68265C18.8833 4.09765 17.9943 4.66965 17.0203 5.35865L17.0193 5.35765C14.5343 7.11765 11.4783 9.66666 9.84731 12.4927C6.80631 17.7607 2.27731 19.9357 3.66031 23.2077C5.04331 26.4807 48.3983 50.2347 57.8523 52.6597C63.4123 54.0857 66.4583 52.9297 67.7303 51.2077C67.7433 51.2047 67.7563 51.2026 67.7673 51.1996Z" fill="#F9EB37" stroke="#F6E83A" stroke-width="5.3989" stroke-miterlimit="10" stroke-linecap="round" stroke-linejoin="round"/>
<path d="M21.7443 4.05812C21.3133 3.32512 20.3683 3.09412 19.6433 3.53812C17.2373 5.01112 12.2013 8.41612 9.93129 12.3491C6.8903 17.6171 2.3613 19.7921 3.7443 23.0641C5.1273 26.3371 48.4823 50.0911 57.9363 52.5161C67.3913 54.9421 69.5823 49.9011 68.1283 47.3061C66.6733 44.7101 56.8663 36.8131 53.0923 27.4511C49.3183 18.0891 49.1593 11.4521 44.3013 8.80712C39.4433 6.16212 38.2823 14.6701 31.7653 12.8241C26.0163 11.1931 23.7013 7.38312 21.7443 4.05812Z" stroke="#222221" stroke-width="1.5425" stroke-miterlimit="10"/>
<path d="M8.25684 14.8242C8.25684 14.8242 18.6368 21.0462 32.7978 33.2932C46.9588 45.5392 62.5318 52.6152 67.8498 51.0562" stroke="#222221" stroke-width="1.5425" stroke-miterlimit="10"/>
<path d="M17.1035 5.21289C17.1035 5.21289 21.3345 16.3769 37.7845 28.6679C53.7805 40.7769 52.5475 46.9209 52.5475 46.9209" stroke="#222221" stroke-width="1.5425" stroke-miterlimit="10"/>
<path d="M56.2352 33.2664C56.2352 33.2664 48.2262 28.9454 41.2832 31.4434" stroke="#222221" stroke-width="1.5425" stroke-miterlimit="10"/>
<path d="M48.6944 14.5117C48.6944 14.5117 40.3204 21.9927 25.6934 17.7777" stroke="#222221" stroke-width="1.5425" stroke-miterlimit="10"/>
<path d="M48.9834 39.1113C48.9834 39.1113 55.0334 43.9343 65.4034 44.1143" stroke="#222221" stroke-width="1.5425" stroke-miterlimit="10"/>
<path d="M19.8857 29.669L12.4627 25.383C11.6727 24.927 11.3997 23.907 11.8557 23.117C12.3117 22.327 13.3317 22.054 14.1217 22.51L21.5447 26.796C22.3347 27.252 22.6077 28.272 22.1517 29.062C21.6957 29.852 20.6757 30.125 19.8857 29.669Z" stroke="#222221" stroke-width="1.5425" stroke-miterlimit="10"/>
</svg>
